# xmcd
# Track frame offsets:
# 150
# 10242
# 21476
# 30507
# 40329
# 50748
# 57495
# 68295
# 78162
# 89502
# 101129
# 110473
# 121077
# 131897
# 143221
# 153217
# 163675
# 175944
# 189170
# 199913
#
# Disc length: 2806 seconds
# Revision: 0
# Processed by: cddbd v1.5.2PL0 Copyright (c) Steve Scherf et al.
# Submitted via: VisiTrax 2.10.3.257 - For more info visit www.synapsa.com
#
DISCID=0e0af414
DTITLE=Johnny Horton - Johnny Horton
DYEAR=2007
DGENRE=
TTITLE0=Honky Tonk Man
TTITLE1=I'm Ready If You're Willing
TTITLE2=I'm A One Woman Man
TTITLE3=I Don't Like I Did
TTITLE4=Tennessee Jive
TTITLE5=Rhythm In My baby's Walk
TTITLE6=The First Train Headin' South
TTITLE7=The Rest Of Your Life
TTITLE8=(Iwished For An Angel) And The Devil Sent Me You
TTITLE9=I Won't Forget
TTITLE10=S.S. Lureline
TTITLE11=Ridin' The Sunshine Special
TTITLE12=The Mansion You Stole
TTITLE13=All For The Love Of A Girl
TTITLE14=Two Red Lips And Warm Red Wine
TTITLE15=Move Down The Line
TTITLE16=The Train With The Rhumba Beat
TTITLE17=The Chuld's Side Of Life
TTITLE18=Betty Lorraine (Betty Lou)
TTITLE19=Big Wheels Rollin'
EXTD=
EXTT0=
EXTT1=
EXTT2=
EXTT3=
EXTT4=
EXTT5=
EXTT6=
EXTT7=
EXTT8=
EXTT9=
EXTT10=
EXTT11=
EXTT12=
EXTT13=
EXTT14=
EXTT15=
EXTT16=
EXTT17=
EXTT18=
EXTT19=
PLAYORDER=
